# xmcd CD database file
#
# Track frame offsets:
#	150
#	19147
#	31777
#	41185
#	62305
#	76080
#	84085
#	94322
#	110842
#	122560
#	143852
#	157682
#
# Disc length: 2311 seconds
#
# Revision: 0
# Processed by: cddbd v1.5.2PL0 Copyright (c) Steve Scherf et al.
# Submitted via: CDex 1.70beta2
#
DISCID=8709050c
DTITLE=Acustic Special 2  - Acustic Special 2 
DYEAR=2008
DGENRE=Salsa
TTITLE0=Behind The Waterfall
TTITLE1=The Huron Carol
TTITLE2=Vibrations
TTITLE3=Secreto Amor
TTITLE4=Susurro
TTITLE5=Shattered Dreams
TTITLE6=Rayes Morenos
TTITLE7=Sicuris
TTITLE8=Shaman's Call
TTITLE9=Romeo and Julieta
TTITLE10=Campanitas
TTITLE11=Valentina
EXTD=YEAR: 2008
EXTT0=
EXTT1=
EXTT2=
EXTT3=
EXTT4=
EXTT5=
EXTT6=
EXTT7=
EXTT8=
EXTT9=
EXTT10=
EXTT11=
PLAYORDER=
